<svg width="46" height="43" viewBox="0 0 46 43" fill="none" xmlns="http://www.w3.org/2000/svg">
<rect x="3.67407" y="4.97827" width="42.2674" height="37.3367" rx="6.96951" fill="#6C5FBC"/>
<rect x="1.0075" y="1.0075" width="40.2524" height="35.3217" rx="5.96201" fill="#DBD9EE" stroke="#6C5FBC" stroke-width="2.01499"/>
<path d="M32.6238 12.051L9.72219 11.9498" stroke="#6C5FBC" stroke-width="2.08432" stroke-linecap="round" stroke-linejoin="round"/>
<path d="M32.6091 16.6363L27.5157 16.6138C25.409 16.6044 23.7051 14.5424 23.7128 12.0114C23.7206 9.48047 25.4371 7.4335 27.5438 7.44281L32.6372 7.46533" stroke="#6C5FBC" stroke-width="2.08432" stroke-linecap="round" stroke-linejoin="round"/>
<path d="M17.3613 26.7221L10.7069 26.648C10.1617 26.6456 9.70482 26.1076 9.69444 25.4525L9.65016 23.7254C9.63987 23.0405 10.1001 22.462 10.6702 22.4645L17.2502 22.5383L17.3613 26.7221Z" stroke="#6C5FBC" stroke-width="2.08432" stroke-linecap="round" stroke-linejoin="round"/>
<path d="M27.8134 29.2104L18.4076 29.0943C17.8624 29.0919 17.4055 28.5539 17.3951 27.8988L17.2752 22.5237L32.555 22.7103L32.5653 23.3952C32.6421 26.6412 30.5025 29.252 27.8134 29.2104Z" stroke="#6C5FBC" stroke-width="2.08432" stroke-linecap="round" stroke-linejoin="round"/>
</svg>
